<?xml version="1.0" encoding="utf-8"?>
<!-- Generator: Adobe Illustrator 27.0.0, SVG Export Plug-In . SVG Version: 6.00 Build 0)  -->
<svg version="1.1" id="Layer_1" xmlns="http://www.w3.org/2000/svg" xmlns:xlink="http://www.w3.org/1999/xlink" x="0px" y="0px"
	 viewBox="0 0 282 66" style="enable-background:new 0 0 282 66;" xml:space="preserve">
<style type="text/css">
	.st0{fill:url(#SVGID_1_);}
	.st1{fill:url(#SVGID_00000155132265327441862130000009218803838427008921_);}
	.st2{fill:url(#SVGID_00000113346261599556223820000016499149832708574855_);}
	.st3{fill:url(#SVGID_00000116226658056776586030000012186499987434568835_);}
	.st4{fill:url(#SVGID_00000145059945026350937000000011692682894307662230_);}
	.st5{fill:url(#SVGID_00000150094750656341131260000017303180599593101999_);}
	.st6{fill:url(#SVGID_00000145775063162873184430000005338914204109070755_);}
	.st7{fill:url(#SVGID_00000057868115851331857560000002117615789594009275_);}
	.st8{fill:url(#SVGID_00000166637973431010071980000003647786253539628437_);}
	.st9{fill:url(#SVGID_00000010308522580088570110000018092100461441191838_);}
	.st10{fill:url(#SVGID_00000113331846455157882900000005344313294123454614_);}
	.st11{fill:url(#SVGID_00000090990263635945753320000007046026449010761874_);}
	.st12{fill:url(#SVGID_00000032631089159490954240000013386298934752260533_);}
	.st13{fill:url(#SVGID_00000116933595144698599520000014735971020644275364_);}
	.st14{fill:url(#SVGID_00000011016657572216230790000007172322656763281830_);}
	.st15{fill:url(#SVGID_00000101782724305519142830000018246354269972516516_);}
	.st16{fill:url(#SVGID_00000179613161538982992580000009981364452191923844_);}
	.st17{fill:url(#SVGID_00000083070905237122557720000007994976654524493482_);}
	.st18{fill:url(#SVGID_00000040540985529181402160000007334191490263015347_);}
	.st19{fill:url(#SVGID_00000145044906206472573210000009885009909566250173_);}
	.st20{fill:url(#SVGID_00000119837643715373287570000016168470560645929618_);}
	.st21{fill:url(#SVGID_00000123424307645461431380000007199626926237628604_);}
	.st22{fill:url(#SVGID_00000035518764167455115850000010300346842905772696_);}
	.st23{fill:url(#SVGID_00000106144584897439145790000014572672543414875071_);}
	.st24{fill:url(#SVGID_00000127736373691952606440000001795030320886156727_);}
</style>
<g>
	<g>
		<g>
			
				<linearGradient id="SVGID_1_" gradientUnits="userSpaceOnUse" x1="85.9353" y1="69.4164" x2="84.965" y2="24.1353" gradientTransform="matrix(1 0 0 -1 0 68)">
				<stop  offset="0" style="stop-color:#AF7F2C"/>
				<stop  offset="5.888034e-02" style="stop-color:#B48630"/>
				<stop  offset="0.1435" style="stop-color:#C2993B"/>
				<stop  offset="0.2431" style="stop-color:#D8B84D"/>
				<stop  offset="0.3333" style="stop-color:#F1DA61"/>
				<stop  offset="0.5161" style="stop-color:#F1E088"/>
				<stop  offset="0.6613" style="stop-color:#F1DA61"/>
				<stop  offset="1" style="stop-color:#5A6EB3"/>
			</linearGradient>
			<path class="st0" d="M81.3,53.9h1.1l2.4,4.6l2.4-4.6h1l-3,5.4v3.4h-0.9v-3.4L81.3,53.9z"/>
			
				<linearGradient id="SVGID_00000144321629414615392050000014730413373747277703_" gradientUnits="userSpaceOnUse" x1="97.7716" y1="69.1432" x2="96.8019" y2="23.8871" gradientTransform="matrix(1 0 0 -1 0 68)">
				<stop  offset="0" style="stop-color:#AF7F2C"/>
				<stop  offset="5.888034e-02" style="stop-color:#B48630"/>
				<stop  offset="0.1435" style="stop-color:#C2993B"/>
				<stop  offset="0.2431" style="stop-color:#D8B84D"/>
				<stop  offset="0.3333" style="stop-color:#F1DA61"/>
				<stop  offset="0.5161" style="stop-color:#F1E088"/>
				<stop  offset="0.6613" style="stop-color:#F1DA61"/>
				<stop  offset="1" style="stop-color:#5A6EB3"/>
			</linearGradient>
			<path style="fill:url(#SVGID_00000144321629414615392050000014730413373747277703_);" d="M96.5,62.7c-2.6,0-4.6-1.8-4.6-4.5
				c0-2.6,2-4.5,4.6-4.5s4.6,1.9,4.6,4.5C101.1,60.9,99.2,62.7,96.5,62.7z M96.5,62c2.1,0,3.7-1.4,3.7-3.7s-1.6-3.7-3.7-3.7
				s-3.7,1.4-3.7,3.7C92.9,60.6,94.4,62,96.5,62z"/>
			
				<linearGradient id="SVGID_00000121968337470881298020000007020925055801904542_" gradientUnits="userSpaceOnUse" x1="110.0345" y1="68.9276" x2="109.0642" y2="23.6496" gradientTransform="matrix(1 0 0 -1 0 68)">
				<stop  offset="0" style="stop-color:#AF7F2C"/>
				<stop  offset="5.888034e-02" style="stop-color:#B48630"/>
				<stop  offset="0.1435" style="stop-color:#C2993B"/>
				<stop  offset="0.2431" style="stop-color:#D8B84D"/>
				<stop  offset="0.3333" style="stop-color:#F1DA61"/>
				<stop  offset="0.5161" style="stop-color:#F1E088"/>
				<stop  offset="0.6613" style="stop-color:#F1DA61"/>
				<stop  offset="1" style="stop-color:#5A6EB3"/>
			</linearGradient>
			<path style="fill:url(#SVGID_00000121968337470881298020000007020925055801904542_);" d="M105.5,53.9h0.9v5.5
				c0,1.8,1,2.6,2.5,2.6s2.4-0.7,2.4-2.6v-5.5h0.9v5.5c0,2.3-1.5,3.3-3.4,3.3s-3.4-1-3.4-3.3L105.5,53.9L105.5,53.9z"/>
			
				<linearGradient id="SVGID_00000077300427339119320880000012488996862532506263_" gradientUnits="userSpaceOnUse" x1="121.312" y1="68.6917" x2="120.3418" y2="23.4174" gradientTransform="matrix(1 0 0 -1 0 68)">
				<stop  offset="0" style="stop-color:#AF7F2C"/>
				<stop  offset="5.888034e-02" style="stop-color:#B48630"/>
				<stop  offset="0.1435" style="stop-color:#C2993B"/>
				<stop  offset="0.2431" style="stop-color:#D8B84D"/>
				<stop  offset="0.3333" style="stop-color:#F1DA61"/>
				<stop  offset="0.5161" style="stop-color:#F1E088"/>
				<stop  offset="0.6613" style="stop-color:#F1DA61"/>
				<stop  offset="1" style="stop-color:#5A6EB3"/>
			</linearGradient>
			<path style="fill:url(#SVGID_00000077300427339119320880000012488996862532506263_);" d="M119.8,53.9c2.2,0,3.2,1.1,3.2,2.5
				c0,1.2-0.7,2.2-2.3,2.5l2.4,3.7H122l-2.3-3.7H118v3.7h-1v-8.8L119.8,53.9L119.8,53.9z M119.8,54.6H118v3.6h1.9
				c1.5,0,2.2-0.8,2.2-1.8C122.1,55.3,121.4,54.6,119.8,54.6z"/>
			
				<linearGradient id="SVGID_00000035501103720091854260000010659361531325554821_" gradientUnits="userSpaceOnUse" x1="137.4206" y1="68.3767" x2="136.4503" y2="23.0983" gradientTransform="matrix(1 0 0 -1 0 68)">
				<stop  offset="0" style="stop-color:#AF7F2C"/>
				<stop  offset="5.888034e-02" style="stop-color:#B48630"/>
				<stop  offset="0.1435" style="stop-color:#C2993B"/>
				<stop  offset="0.2431" style="stop-color:#D8B84D"/>
				<stop  offset="0.3333" style="stop-color:#F1DA61"/>
				<stop  offset="0.5161" style="stop-color:#F1E088"/>
				<stop  offset="0.6613" style="stop-color:#F1DA61"/>
				<stop  offset="1" style="stop-color:#5A6EB3"/>
			</linearGradient>
			<path style="fill:url(#SVGID_00000035501103720091854260000010659361531325554821_);" d="M133.2,53.9h6.1v0.7h-2.6v8h-0.9v-8
				h-2.6V53.9z"/>
			
				<linearGradient id="SVGID_00000070098244266207558550000010602525793311946430_" gradientUnits="userSpaceOnUse" x1="145.2034" y1="68.1957" x2="144.2336" y2="22.9348" gradientTransform="matrix(1 0 0 -1 0 68)">
				<stop  offset="0" style="stop-color:#AF7F2C"/>
				<stop  offset="5.888034e-02" style="stop-color:#B48630"/>
				<stop  offset="0.1435" style="stop-color:#C2993B"/>
				<stop  offset="0.2431" style="stop-color:#D8B84D"/>
				<stop  offset="0.3333" style="stop-color:#F1DA61"/>
				<stop  offset="0.5161" style="stop-color:#F1E088"/>
				<stop  offset="0.6613" style="stop-color:#F1DA61"/>
				<stop  offset="1" style="stop-color:#5A6EB3"/>
			</linearGradient>
			<path style="fill:url(#SVGID_00000070098244266207558550000010602525793311946430_);" d="M143.5,53.9h0.9v8.8h-0.9V53.9z"/>
			
				<linearGradient id="SVGID_00000012438941241827384940000006391987806933708458_" gradientUnits="userSpaceOnUse" x1="155.1506" y1="68.0669" x2="154.1796" y2="22.7506" gradientTransform="matrix(1 0 0 -1 0 68)">
				<stop  offset="0" style="stop-color:#AF7F2C"/>
				<stop  offset="5.888034e-02" style="stop-color:#B48630"/>
				<stop  offset="0.1435" style="stop-color:#C2993B"/>
				<stop  offset="0.2431" style="stop-color:#D8B84D"/>
				<stop  offset="0.3333" style="stop-color:#F1DA61"/>
				<stop  offset="0.5161" style="stop-color:#F1E088"/>
				<stop  offset="0.6613" style="stop-color:#F1DA61"/>
				<stop  offset="1" style="stop-color:#5A6EB3"/>
			</linearGradient>
			<path style="fill:url(#SVGID_00000012438941241827384940000006391987806933708458_);" d="M149.3,54h1l3.6,7.5l3.6-7.5h1v8.6h-0.9
				v-6.9l-3.3,6.9h-0.7l-3.3-6.9v6.9h-0.9V54H149.3z"/>
			
				<linearGradient id="SVGID_00000121997967466282060110000012757063298091779516_" gradientUnits="userSpaceOnUse" x1="166.8927" y1="67.7934" x2="165.9223" y2="22.5061" gradientTransform="matrix(1 0 0 -1 0 68)">
				<stop  offset="0" style="stop-color:#AF7F2C"/>
				<stop  offset="5.888034e-02" style="stop-color:#B48630"/>
				<stop  offset="0.1435" style="stop-color:#C2993B"/>
				<stop  offset="0.2431" style="stop-color:#D8B84D"/>
				<stop  offset="0.3333" style="stop-color:#F1DA61"/>
				<stop  offset="0.5161" style="stop-color:#F1E088"/>
				<stop  offset="0.6613" style="stop-color:#F1DA61"/>
				<stop  offset="1" style="stop-color:#5A6EB3"/>
			</linearGradient>
			<path style="fill:url(#SVGID_00000121997967466282060110000012757063298091779516_);" d="M168.1,54.6h-3.9v3.3h3.5v0.7h-3.5v3.3
				h3.9v0.7h-4.9v-8.8h4.9V54.6z"/>
			
				<linearGradient id="SVGID_00000174578525116400757210000006846723511251054752_" gradientUnits="userSpaceOnUse" x1="173.6896" y1="67.6649" x2="172.7191" y2="22.3739" gradientTransform="matrix(1 0 0 -1 0 68)">
				<stop  offset="0" style="stop-color:#AF7F2C"/>
				<stop  offset="5.888034e-02" style="stop-color:#B48630"/>
				<stop  offset="0.1435" style="stop-color:#C2993B"/>
				<stop  offset="0.2431" style="stop-color:#D8B84D"/>
				<stop  offset="0.3333" style="stop-color:#F1DA61"/>
				<stop  offset="0.5161" style="stop-color:#F1E088"/>
				<stop  offset="0.6613" style="stop-color:#F1DA61"/>
				<stop  offset="1" style="stop-color:#5A6EB3"/>
			</linearGradient>
			<path style="fill:url(#SVGID_00000174578525116400757210000006846723511251054752_);" d="M172.4,61.2h1l-1.4,3.3h-0.7L172.4,61.2
				z"/>
			
				<linearGradient id="SVGID_00000164486720327196181510000011577416723479532979_" gradientUnits="userSpaceOnUse" x1="187.6915" y1="67.369" x2="186.7212" y2="22.088" gradientTransform="matrix(1 0 0 -1 0 68)">
				<stop  offset="0" style="stop-color:#AF7F2C"/>
				<stop  offset="5.888034e-02" style="stop-color:#B48630"/>
				<stop  offset="0.1435" style="stop-color:#C2993B"/>
				<stop  offset="0.2431" style="stop-color:#D8B84D"/>
				<stop  offset="0.3333" style="stop-color:#F1DA61"/>
				<stop  offset="0.5161" style="stop-color:#F1E088"/>
				<stop  offset="0.6613" style="stop-color:#F1DA61"/>
				<stop  offset="1" style="stop-color:#5A6EB3"/>
			</linearGradient>
			<path style="fill:url(#SVGID_00000164486720327196181510000011577416723479532979_);" d="M183.1,53.9h1.1l2.4,4.6l2.4-4.6h1
				l-3,5.4v3.4h-0.9v-3.4L183.1,53.9z"/>
			
				<linearGradient id="SVGID_00000173139709696902281640000011331229654809505692_" gradientUnits="userSpaceOnUse" x1="199.5277" y1="67.0971" x2="198.558" y2="21.841" gradientTransform="matrix(1 0 0 -1 0 68)">
				<stop  offset="0" style="stop-color:#AF7F2C"/>
				<stop  offset="5.888034e-02" style="stop-color:#B48630"/>
				<stop  offset="0.1435" style="stop-color:#C2993B"/>
				<stop  offset="0.2431" style="stop-color:#D8B84D"/>
				<stop  offset="0.3333" style="stop-color:#F1DA61"/>
				<stop  offset="0.5161" style="stop-color:#F1E088"/>
				<stop  offset="0.6613" style="stop-color:#F1DA61"/>
				<stop  offset="1" style="stop-color:#5A6EB3"/>
			</linearGradient>
			<path style="fill:url(#SVGID_00000173139709696902281640000011331229654809505692_);" d="M198.3,62.7c-2.6,0-4.6-1.8-4.6-4.5
				c0-2.6,2-4.5,4.6-4.5s4.6,1.9,4.6,4.5C202.9,60.9,200.9,62.7,198.3,62.7z M198.3,62c2.1,0,3.7-1.4,3.7-3.7s-1.6-3.7-3.7-3.7
				s-3.7,1.4-3.7,3.7C194.7,60.6,196.2,62,198.3,62z"/>
			
				<linearGradient id="SVGID_00000160913338142643708240000018363221074495026592_" gradientUnits="userSpaceOnUse" x1="211.7906" y1="66.8805" x2="210.8203" y2="21.6025" gradientTransform="matrix(1 0 0 -1 0 68)">
				<stop  offset="0" style="stop-color:#AF7F2C"/>
				<stop  offset="5.888034e-02" style="stop-color:#B48630"/>
				<stop  offset="0.1435" style="stop-color:#C2993B"/>
				<stop  offset="0.2431" style="stop-color:#D8B84D"/>
				<stop  offset="0.3333" style="stop-color:#F1DA61"/>
				<stop  offset="0.5161" style="stop-color:#F1E088"/>
				<stop  offset="0.6613" style="stop-color:#F1DA61"/>
				<stop  offset="1" style="stop-color:#5A6EB3"/>
			</linearGradient>
			<path style="fill:url(#SVGID_00000160913338142643708240000018363221074495026592_);" d="M207.3,53.9h0.9v5.5
				c0,1.8,1,2.6,2.5,2.6s2.4-0.7,2.4-2.6v-5.5h0.9v5.5c0,2.3-1.5,3.3-3.4,3.3s-3.4-1-3.4-3.3v-5.5H207.3z"/>
			
				<linearGradient id="SVGID_00000060009684722659098680000016074842379997390243_" gradientUnits="userSpaceOnUse" x1="223.118" y1="66.6436" x2="222.1479" y2="21.3692" gradientTransform="matrix(1 0 0 -1 0 68)">
				<stop  offset="0" style="stop-color:#AF7F2C"/>
				<stop  offset="5.888034e-02" style="stop-color:#B48630"/>
				<stop  offset="0.1435" style="stop-color:#C2993B"/>
				<stop  offset="0.2431" style="stop-color:#D8B84D"/>
				<stop  offset="0.3333" style="stop-color:#F1DA61"/>
				<stop  offset="0.5161" style="stop-color:#F1E088"/>
				<stop  offset="0.6613" style="stop-color:#F1DA61"/>
				<stop  offset="1" style="stop-color:#5A6EB3"/>
			</linearGradient>
			<path style="fill:url(#SVGID_00000060009684722659098680000016074842379997390243_);" d="M221.6,53.9c2.2,0,3.2,1.1,3.2,2.5
				c0,1.2-0.7,2.2-2.3,2.5l2.4,3.7h-1.1l-2.3-3.7h-1.7v3.7h-0.9v-8.8L221.6,53.9L221.6,53.9z M221.6,54.6h-1.9v3.6h1.9
				c1.5,0,2.2-0.8,2.2-1.8C223.9,55.3,223.2,54.6,221.6,54.6z"/>
			
				<linearGradient id="SVGID_00000086687799782115638540000009212163740240144013_" gradientUnits="userSpaceOnUse" x1="239.7076" y1="66.2882" x2="238.7378" y2="21.0329" gradientTransform="matrix(1 0 0 -1 0 68)">
				<stop  offset="0" style="stop-color:#AF7F2C"/>
				<stop  offset="5.888034e-02" style="stop-color:#B48630"/>
				<stop  offset="0.1435" style="stop-color:#C2993B"/>
				<stop  offset="0.2431" style="stop-color:#D8B84D"/>
				<stop  offset="0.3333" style="stop-color:#F1DA61"/>
				<stop  offset="0.5161" style="stop-color:#F1E088"/>
				<stop  offset="0.6613" style="stop-color:#F1DA61"/>
				<stop  offset="1" style="stop-color:#5A6EB3"/>
			</linearGradient>
			<path style="fill:url(#SVGID_00000086687799782115638540000009212163740240144013_);" d="M238.5,62.7c-1.9,0-3.1-1-3.2-2.3h1
				c0.1,0.7,0.7,1.6,2.2,1.6c1.3,0,2.1-0.7,2.1-1.6c0-2.6-5.1-1-5.1-4.2c0-1.4,1.2-2.3,3-2.3s2.8,0.9,3,2.1h-1
				c-0.1-0.6-0.7-1.4-2-1.4c-1.1,0-2,0.6-2,1.6c0,2.5,5.1,1,5.1,4.2C241.5,61.5,240.5,62.7,238.5,62.7z"/>
			
				<linearGradient id="SVGID_00000108293155040430646120000001797308058652365963_" gradientUnits="userSpaceOnUse" x1="249.4722" y1="66.1224" x2="248.502" y2="20.8441" gradientTransform="matrix(1 0 0 -1 0 68)">
				<stop  offset="0" style="stop-color:#AF7F2C"/>
				<stop  offset="5.888034e-02" style="stop-color:#B48630"/>
				<stop  offset="0.1435" style="stop-color:#C2993B"/>
				<stop  offset="0.2431" style="stop-color:#D8B84D"/>
				<stop  offset="0.3333" style="stop-color:#F1DA61"/>
				<stop  offset="0.5161" style="stop-color:#F1E088"/>
				<stop  offset="0.6613" style="stop-color:#F1DA61"/>
				<stop  offset="1" style="stop-color:#5A6EB3"/>
			</linearGradient>
			<path style="fill:url(#SVGID_00000108293155040430646120000001797308058652365963_);" d="M245.3,53.9h6.1v0.7h-2.6v8H248v-8h-2.6
				L245.3,53.9L245.3,53.9z"/>
			
				<linearGradient id="SVGID_00000116204543346426881220000012142239822372382142_" gradientUnits="userSpaceOnUse" x1="259.4605" y1="65.925" x2="258.4902" y2="20.6439" gradientTransform="matrix(1 0 0 -1 0 68)">
				<stop  offset="0" style="stop-color:#AF7F2C"/>
				<stop  offset="5.888034e-02" style="stop-color:#B48630"/>
				<stop  offset="0.1435" style="stop-color:#C2993B"/>
				<stop  offset="0.2431" style="stop-color:#D8B84D"/>
				<stop  offset="0.3333" style="stop-color:#F1DA61"/>
				<stop  offset="0.5161" style="stop-color:#F1E088"/>
				<stop  offset="0.6613" style="stop-color:#F1DA61"/>
				<stop  offset="1" style="stop-color:#5A6EB3"/>
			</linearGradient>
			<path style="fill:url(#SVGID_00000116204543346426881220000012142239822372382142_);" d="M254.9,53.9h1.1l2.4,4.6l2.4-4.6h1
				l-3,5.4v3.4h-0.9v-3.4L254.9,53.9z"/>
			
				<linearGradient id="SVGID_00000060032727650335963560000006709105293033487244_" gradientUnits="userSpaceOnUse" x1="269.2477" y1="65.6988" x2="268.2779" y2="20.4379" gradientTransform="matrix(1 0 0 -1 0 68)">
				<stop  offset="0" style="stop-color:#AF7F2C"/>
				<stop  offset="5.888034e-02" style="stop-color:#B48630"/>
				<stop  offset="0.1435" style="stop-color:#C2993B"/>
				<stop  offset="0.2431" style="stop-color:#D8B84D"/>
				<stop  offset="0.3333" style="stop-color:#F1DA61"/>
				<stop  offset="0.5161" style="stop-color:#F1E088"/>
				<stop  offset="0.6613" style="stop-color:#F1DA61"/>
				<stop  offset="1" style="stop-color:#5A6EB3"/>
			</linearGradient>
			<path style="fill:url(#SVGID_00000060032727650335963560000006709105293033487244_);" d="M266.8,53.9v8h3.4v0.7h-4.3v-8.8
				L266.8,53.9L266.8,53.9z"/>
			
				<linearGradient id="SVGID_00000137848567384238901180000017775378334235561348_" gradientUnits="userSpaceOnUse" x1="277.7449" y1="65.5628" x2="276.7745" y2="20.2755" gradientTransform="matrix(1 0 0 -1 0 68)">
				<stop  offset="0" style="stop-color:#AF7F2C"/>
				<stop  offset="5.888034e-02" style="stop-color:#B48630"/>
				<stop  offset="0.1435" style="stop-color:#C2993B"/>
				<stop  offset="0.2431" style="stop-color:#D8B84D"/>
				<stop  offset="0.3333" style="stop-color:#F1DA61"/>
				<stop  offset="0.5161" style="stop-color:#F1E088"/>
				<stop  offset="0.6613" style="stop-color:#F1DA61"/>
				<stop  offset="1" style="stop-color:#5A6EB3"/>
			</linearGradient>
			<path style="fill:url(#SVGID_00000137848567384238901180000017775378334235561348_);" d="M279,54.6h-3.9v3.3h3.5v0.7h-3.5v3.3
				h3.9v0.7h-4.9v-8.8h4.9V54.6z"/>
		</g>
		<g>
			<g>
				
					<linearGradient id="SVGID_00000053518376000501133870000006837004881856807060_" gradientUnits="userSpaceOnUse" x1="97.1449" y1="69.1772" x2="96.1746" y2="23.8972" gradientTransform="matrix(1 0 0 -1 0 68)">
					<stop  offset="0" style="stop-color:#AF7F2C"/>
					<stop  offset="5.888034e-02" style="stop-color:#B48630"/>
					<stop  offset="0.1435" style="stop-color:#C2993B"/>
					<stop  offset="0.2431" style="stop-color:#D8B84D"/>
					<stop  offset="0.3333" style="stop-color:#F1DA61"/>
					<stop  offset="0.5161" style="stop-color:#F1E088"/>
					<stop  offset="0.6613" style="stop-color:#F1DA61"/>
					<stop  offset="1" style="stop-color:#5A6EB3"/>
				</linearGradient>
				<path style="fill:url(#SVGID_00000053518376000501133870000006837004881856807060_);" d="M98.2,40H96V4.2H81.9V2.3h30.3v1.9h-14
					V40z"/>
				
					<linearGradient id="SVGID_00000057120463131374131100000002312442330009563292_" gradientUnits="userSpaceOnUse" x1="135.9529" y1="68.3751" x2="134.9831" y2="23.119" gradientTransform="matrix(1 0 0 -1 0 68)">
					<stop  offset="0" style="stop-color:#AF7F2C"/>
					<stop  offset="5.888034e-02" style="stop-color:#B48630"/>
					<stop  offset="0.1435" style="stop-color:#C2993B"/>
					<stop  offset="0.2431" style="stop-color:#D8B84D"/>
					<stop  offset="0.3333" style="stop-color:#F1DA61"/>
					<stop  offset="0.5161" style="stop-color:#F1E088"/>
					<stop  offset="0.6613" style="stop-color:#F1DA61"/>
					<stop  offset="1" style="stop-color:#5A6EB3"/>
				</linearGradient>
				<path style="fill:url(#SVGID_00000057120463131374131100000002312442330009563292_);" d="M122.4,7c3.2-3.5,7.6-5.2,13.1-5.2
					s9.8,1.7,13.1,5.2c3.2,3.5,4.8,8.2,4.8,14.1c0,6-1.6,10.7-4.8,14.2s-7.6,5.2-13.1,5.2s-9.9-1.7-13.1-5.2s-4.8-8.2-4.8-14.2
					C117.5,15.2,119.1,10.5,122.4,7z M135.4,3.7c-4.8,0-8.6,1.6-11.4,4.7c-2.8,3.2-4.2,7.4-4.2,12.7s1.4,9.6,4.2,12.7
					c2.8,3.2,6.6,4.7,11.4,4.7s8.6-1.6,11.4-4.7c2.8-3.2,4.2-7.4,4.2-12.7s-1.4-9.6-4.2-12.7C144,5.2,140.2,3.7,135.4,3.7z"/>
				
					<linearGradient id="SVGID_00000072269725166008712990000014043684338786138033_" gradientUnits="userSpaceOnUse" x1="179.9045" y1="67.5113" x2="178.9343" y2="22.2327" gradientTransform="matrix(1 0 0 -1 0 68)">
					<stop  offset="0" style="stop-color:#AF7F2C"/>
					<stop  offset="5.888034e-02" style="stop-color:#B48630"/>
					<stop  offset="0.1435" style="stop-color:#C2993B"/>
					<stop  offset="0.2431" style="stop-color:#D8B84D"/>
					<stop  offset="0.3333" style="stop-color:#F1DA61"/>
					<stop  offset="0.5161" style="stop-color:#F1E088"/>
					<stop  offset="0.6613" style="stop-color:#F1DA61"/>
					<stop  offset="1" style="stop-color:#5A6EB3"/>
				</linearGradient>
				<path style="fill:url(#SVGID_00000072269725166008712990000014043684338786138033_);" d="M166.7,2.3v24.5c0,3.6,1.2,6.5,3.5,8.6
					c2.3,2.1,5.4,3.2,9.4,3.2c3.9,0,7.1-1.1,9.4-3.2c2.3-2.1,3.5-5,3.5-8.6V2.3h2.2v24.6c0,4.1-1.3,7.4-4.1,9.9
					c-2.7,2.5-6.4,3.7-11,3.7s-8.3-1.2-11-3.7s-4.1-5.8-4.1-9.9V2.3H166.7z"/>
				
					<linearGradient id="SVGID_00000119078538154701602320000000707563193777538189_" gradientUnits="userSpaceOnUse" x1="222.7463" y1="66.6311" x2="221.7765" y2="21.3751" gradientTransform="matrix(1 0 0 -1 0 68)">
					<stop  offset="0" style="stop-color:#AF7F2C"/>
					<stop  offset="5.888034e-02" style="stop-color:#B48630"/>
					<stop  offset="0.1435" style="stop-color:#C2993B"/>
					<stop  offset="0.2431" style="stop-color:#D8B84D"/>
					<stop  offset="0.3333" style="stop-color:#F1DA61"/>
					<stop  offset="0.5161" style="stop-color:#F1E088"/>
					<stop  offset="0.6613" style="stop-color:#F1DA61"/>
					<stop  offset="1" style="stop-color:#5A6EB3"/>
				</linearGradient>
				<path style="fill:url(#SVGID_00000119078538154701602320000000707563193777538189_);" d="M223.3,40.5c-5.4,0-9.7-1.8-12.9-5.3
					s-4.8-8.3-4.8-14.3c0-5.9,1.6-10.5,4.8-14s7.5-5.2,12.9-5.2c4.1,0,7.6,1.2,10.6,3.6s4.7,5.4,5.1,9h-2.2c-0.4-3-1.9-5.6-4.5-7.6
					s-5.6-3.1-9.1-3.1c-4.7,0-8.5,1.5-11.2,4.7c-2.8,3.1-4.2,7.3-4.2,12.6c0,5.4,1.4,9.7,4.2,12.9s6.5,4.8,11.2,4.8
					c3.6,0,6.6-0.9,9.1-2.8c2.5-1.8,4-4.3,4.4-7.3h2.2c-0.5,3.6-2.1,6.5-5.1,8.6C231.1,39.4,227.5,40.5,223.3,40.5z"/>
				
					<linearGradient id="SVGID_00000163792206527205213150000001343408484787105677_" gradientUnits="userSpaceOnUse" x1="265.206" y1="65.7949" x2="264.2353" y2="20.4939" gradientTransform="matrix(1 0 0 -1 0 68)">
					<stop  offset="0" style="stop-color:#AF7F2C"/>
					<stop  offset="5.888034e-02" style="stop-color:#B48630"/>
					<stop  offset="0.1435" style="stop-color:#C2993B"/>
					<stop  offset="0.2431" style="stop-color:#D8B84D"/>
					<stop  offset="0.3333" style="stop-color:#F1DA61"/>
					<stop  offset="0.5161" style="stop-color:#F1E088"/>
					<stop  offset="0.6613" style="stop-color:#F1DA61"/>
					<stop  offset="1" style="stop-color:#5A6EB3"/>
				</linearGradient>
				<path style="fill:url(#SVGID_00000163792206527205213150000001343408484787105677_);" d="M279.7,40h-2.2V21.6h-25.4V40h-2.2V2.3
					h2.2v17.4h25.4V2.3h2.2V40z"/>
			</g>
		</g>
	</g>
	<g>
		
			<linearGradient id="SVGID_00000011711076420667049570000001609678491169994152_" gradientUnits="userSpaceOnUse" x1="2.2756" y1="35" x2="65.2493" y2="35" gradientTransform="matrix(1 0 0 -1 0 68)">
			<stop  offset="0" style="stop-color:#AF7F2C"/>
			<stop  offset="5.888034e-02" style="stop-color:#B48630"/>
			<stop  offset="0.1435" style="stop-color:#C2993B"/>
			<stop  offset="0.2431" style="stop-color:#D8B84D"/>
			<stop  offset="0.3333" style="stop-color:#F1DA61"/>
			<stop  offset="0.5161" style="stop-color:#F1E088"/>
			<stop  offset="0.6613" style="stop-color:#F1DA61"/>
			<stop  offset="1" style="stop-color:#5A6EB3"/>
		</linearGradient>
		<path style="fill:url(#SVGID_00000011711076420667049570000001609678491169994152_);" d="M61.1,64.5H6.4c-2.3,0-4.2-1.9-4.2-4.2
			V5.7c0-2.3,1.9-4.2,4.2-4.2h54.7c2.3,0,4.2,1.9,4.2,4.2v54.7C65.2,62.6,63.4,64.5,61.1,64.5z M6.4,2.7c-1.7,0-3,1.3-3,3v54.7
			c0,1.7,1.3,3,3,3h54.7c1.7,0,3-1.3,3-3V5.7c0-1.7-1.3-3-3-3C61.1,2.7,6.4,2.7,6.4,2.7z"/>
	</g>
	
		<linearGradient id="SVGID_00000066513001693942877360000001840515663233879459_" gradientUnits="userSpaceOnUse" x1="39.5961" y1="61.9935" x2="20.3464" y2="15.5433" gradientTransform="matrix(1 0 0 -1 0 68)">
		<stop  offset="0" style="stop-color:#AF7F2C"/>
		<stop  offset="5.888034e-02" style="stop-color:#B48630"/>
		<stop  offset="0.1435" style="stop-color:#C2993B"/>
		<stop  offset="0.2431" style="stop-color:#D8B84D"/>
		<stop  offset="0.3333" style="stop-color:#F1DA61"/>
		<stop  offset="0.5161" style="stop-color:#F1E088"/>
		<stop  offset="0.6613" style="stop-color:#F1DA61"/>
		<stop  offset="1" style="stop-color:#5A6EB3"/>
	</linearGradient>
	<path style="fill:url(#SVGID_00000066513001693942877360000001840515663233879459_);" d="M36.2,16.3C34.9,17.9,13.6,46.1,25,53.5
		c8.1,5.2,12.9-13.1,2.5-23.1c-4.7-4.6-10.5-9-11.1-10.6c-1.4-3.1,14.8-6.6,25.4-6.5C54,13.4,52.9,19,51.9,23.6
		c0,0,7.9-13.1-13.3-11.9c-17.5,1-25.2,5-24,8.6C16,25.1,30.7,31.9,30.4,44c-0.1,6.9-1.9,7.9-3.5,7.2c-1.2-0.4-6.4-4.9,4.7-22.4
		c5.7-9.1,9.1-13.7,9.1-13.7S37.3,14.9,36.2,16.3z"/>
</g>
</svg>
